<svg xmlns="http://www.w3.org/2000/svg" xmlns:xlink="http://www.w3.org/1999/xlink" width="500" zoomAndPan="magnify" viewBox="0 0 375 374.999991" height="500" preserveAspectRatio="xMidYMid meet" version="1.0"><defs><clipPath id="id1"><path d="M 34 25.980469 L 341.410156 25.980469 L 341.410156 349.230469 L 34 349.230469 Z M 34 25.980469 " clip-rule="nonzero"/></clipPath></defs><rect x="-37.5" width="450" fill="#ffffff" y="-37.499999" height="449.999989" fill-opacity="1"/><rect x="-37.5" width="450" fill="#ffffff" y="-37.499999" height="449.999989" fill-opacity="1"/><rect x="-37.5" width="450" fill="#ffffff" y="-37.499999" height="449.999989" fill-opacity="1"/><g clip-path="url(#id1)"><path fill="#ffde59" d="M 150.1875 76.164062 C 256.539062 76.164062 334.21875 52.347656 334.21875 150.8125 L 142.519531 150.8125 C 45.546875 150.8125 26.828125 82.117188 36.183594 25.980469 C 42.882812 59.910156 94.601562 76.164062 150.1875 76.164062 Z M 339.117188 272.007812 C 348.472656 215.871094 329.753906 172.3125 232.757812 172.3125 L 76.789062 172.3125 C 76.789062 270.777344 201.253906 246.988281 225.121094 246.988281 C 280.71875 246.988281 323.523438 234.953125 339.132812 272.007812 Z M 172.96875 268.398438 L 149.042969 268.398438 C 147.179688 268.398438 145.316406 268.492188 143.460938 268.675781 C 141.605469 268.855469 139.765625 269.128906 137.9375 269.492188 C 136.109375 269.855469 134.300781 270.308594 132.519531 270.851562 C 130.734375 271.390625 128.980469 272.019531 127.257812 272.730469 C 125.535156 273.445312 123.851562 274.242188 122.207031 275.121094 C 120.5625 275.996094 118.96875 276.953125 117.417969 277.988281 C 115.867188 279.027344 114.371094 280.132812 112.929688 281.316406 C 111.488281 282.5 110.109375 283.75 108.789062 285.066406 C 107.472656 286.382812 106.222656 287.761719 105.039062 289.203125 C 103.855469 290.644531 102.746094 292.140625 101.710938 293.6875 C 100.675781 295.238281 99.71875 296.835938 98.839844 298.480469 C 97.960938 300.121094 97.164062 301.804688 96.453125 303.527344 C 95.738281 305.25 95.109375 307 94.570312 308.785156 C 94.027344 310.566406 93.574219 312.375 93.210938 314.203125 C 92.847656 316.03125 92.574219 317.871094 92.390625 319.726562 C 92.210938 321.578125 92.117188 323.4375 92.117188 325.300781 L 92.117188 349.230469 L 172.984375 349.230469 Z M 172.96875 268.398438 " fill-opacity="1" fill-rule="nonzero"/></g></svg>